<?xml version="1.0" encoding="utf-8" ?>
<svg height="1000" width="1000" xmlns="http://www.w3.org/2000/svg">
<style>
@import url(base.css);
</style>
<rect height="100%" width="100%" fill="white" />

<!-- right angle -->
<path class="route" d="M 400,100 l 100,0 a 50,50 0 0 1 50,50 l 0,100" />
<path class="route" d="M 400,300 l 100,0 a 50,50 0 0 1 50,50 l 0,100" />
<path class="route" d="M 400,500 l 100,0 a 50,50 0 0 1 50,50 l 0,100" />

<!-- const radius -->
<!--
def f(α):
    α=radians(α)
    l=50/tan(α/2)
    print(f"{150-l:.6f},0 a 50,50 0 0 1 {l*(1-cos(α)):.6f},{l*sin(α):.6f} l {-cos(α)*(150-l):.6f},{sin(α)*(150-l):.6f}")
-->
<path class="route" d="M 100,100 l 129.289322,0 a 50,50 0 0 1 35.355339,14.644661 l 91.421356,91.421356" />
<path class="route" d="M 700,100 l 29.289322,0 a 50,50 0 0 1 35.355339,85.355339 l -20.710678,20.710678" />

<!-- compromise -->
<!--
def c(α):
    α=radians(α)
    z=sqrt(tan(α/2))
    r=50*z
    l=50/z
    print(f"{150-l:.6f},0 a {r:.6f},{r:.6f} 0 0 1 {l*(1-cos(α)):.6f},{l*sin(α):.6f} l {-cos(α)*(150-l):.6f},{sin(α)*(150-l):.6f}")
-->
<path class="route" d="M 100,300 l 117.820287,0 a 77.688699,77.688699 0 0 1 54.934206,22.754493 l 83.311524,83.311524" />
<path class="route" d="M 700,300 l 72.311301,0 a 32.179713,32.179713 0 0 1 22.754493,54.934206 l -51.131812,51.131812" />

<!-- const arc width -->
<!--
def g(α):
    α=radians(α)
    r=50*tan(α/2)
    print(f"100,0 a {r:.6f},{r:.6f} 0 0 1 {50*(1-cos(α)):.6f},{50*sin(α):.6f} l {-cos(α)*100:.6f},{sin(α)*100:.6f}")
-->
<path class="route" d="M 100,500 l 100,0 a 120.710678,120.710678 0 0 1 85.355339,35.355339 l 70.710678,70.710678" />
<path class="route" d="M 700,500 l 100,0 a 20.710678,20.710678 0 0 1 14.644661,35.355339 l -70.710678,70.710678" />

<!-- right angle -->
<path class="ideal" d="M 400,100 l 150,0 l 0,150" />
<path class="ideal" d="M 400,300 l 150,0 l 0,150" />
<path class="ideal" d="M 400,500 l 150,0 l 0,150" />
<path class="guide" d="M 500,50 l 0,100 l 100,0" />
<path class="guide" d="M 500,250 l 0,100 l 100,0" />
<path class="guide" d="M 500,450 l 0,100 l 100,0" />

<!-- const radius -->
<path class="ideal" d="M 100,100 l 150,0 l 106.066017,106.066017" />
<path class="ideal" d="M 700,100 l 150,0 l -106.066017,106.066017" />
<path class="guide" d="M 229.289322,50 l 0,100 l 70.710678,-70.710678" />
<path class="guide" d="M 729.289322,50 l 0,100 l 70.710678,70.710678" />

<!-- compromise -->
<path class="ideal" d="M 100,300 l 150,0 l 106.066017,106.066017" />
<path class="ideal" d="M 700,300 l 150,0 l -106.066017,106.066017" />
<!--
def ch(α):
    α=radians(α)
    z=sqrt(tan(α/2))
    r=50*z
    l=50/z
    print(f"m {150-l:.6f},-50 l 0,{50+r:.6f} l {sin(α)*(50+r):.6f},{cos(α)*(50+r):.6f}")
-->
<path class="guide" d="M 100,300 m 117.820287,-50 l 0,127.688699 l 90.289545,-90.289545" />
<path class="guide" d="M 700,300 m 72.311301,-50 l 0,82.179713 l 58.109832,58.109832" />

<!-- const arc width -->
<path class="ideal" d="M 100,500 l 150,0 l 106.066017,106.066017" />
<path class="ideal" d="M 700,500 l 150,0 l -106.066017,106.066017" />
<!--
def h(α):
    α=radians(α)
    r=50*tan(α/2)
    print(f"0,{50+r:.6f} l {sin(α)*(50+r):.6f},{cos(α)*(50+r):.6f}")
-->
<path class="guide" d="M 200,450 l 0,170.710678 l 120.710678,-120.710678" />
<path class="guide" d="M 800,450 l 0,70.710678 l 50.000000,50.000000" />
</svg>
