<?xml version="1.0" encoding="utf-8" ?>
<svg width="700" height="300" viewBox="-60 200 700 300" xmlns="http://www.w3.org/2000/svg">
<rect x="-60" y="200" height="100%" width="100%" fill="white" />

<g fill="none">
<path stroke="lightgrey" stroke-width="10" d="M 150,300 L 222.76868965133008,300 A 186.4528768836045,186.4528768836045 0 0 1 354.6107832674673,354.6107832674673 L 406.06601717798213,406.06601717798213" />
<path stroke="darkgrey" stroke-width="10" d="M 150,240 L 205.19509652252293,240 A 186.4528768836045,186.4528768836045 0 0 1 337.03719013866015,294.6107832674673 L 427.27922061357856,384.8528137423857" />
<path stroke="blue" d="M 150,300 L 300,300 406.06601717798213,406.06601717798213" />
<path stroke="black" d="M 130,300 L 130,240 M 120,300 L 140,300 M 120,240 L 140,240" />
<path stroke="black" d="M 420.2081528017131,420.2081528017131 L 441.4213562373095,398.99494936611666 M 413.1370849898476,413.1370849898476 L 427.27922061357856,427.27922061357856 M 434.35028842544403,391.9238815542512 L 448.492424049175,406.06601717798213" />
<path stroke="green" d="M 222.76868965133008,300 L 222.76868965133008,486.4528768836045 354.6107832674673,354.6107832674673" />
<path stroke="black" d="M 222.76868965133008,280 L 300,280 M 222.76868965133008,270 V 290 M 300,270 V 290" />

<path stroke="black" d="M 150,300 V 330 H 120" />
<path stroke="black" d="M 300,300 V 380 H 120" />
<path stroke="black" d="M 406.06601717798213,406.06601717798213 V 420 H 120" />
</g>

<g fill="green">
<circle cx="150" cy="300" r="5" />
<circle cx="300" cy="300" r="5" />
<circle cx="406.06601717798213" cy="406.06601717798213" r="5" />
</g>

<g fill="black" font-size="20">
<g font-family="monospace">
<text x="125" y="270" text-anchor="end" dominant-baseline="middle">offset_in</text>
<text x="434.35028843" y="413.13708499" text-anchor="start" dominant-baseline="hanging">offset_out</text>
<text fill="black" font-family="monospace" font-size="20" x="261.38434482566504" y="275" text-anchor="middle">width</text>
<text x="110" y="330" text-anchor="end" dominant-baseline="middle">from</text>
<text x="110" y="380" text-anchor="end" dominant-baseline="middle">corner</text>
<text x="110" y="420" text-anchor="end" dominant-baseline="middle">to</text>
</g>
</g>
</svg>
